<?xml version="1.0" encoding="UTF-8"?>
<svg width="96px" height="96px" viewBox="0 0 96 96" version="1.1" xmlns="http://www.w3.org/2000/svg" xmlns:xlink="http://www.w3.org/1999/xlink">
    <!-- Generator: Sketch 50.2 (55047) - http://www.bohemiancoding.com/sketch -->
    <title>favicon-96x96</title>
    <desc>Created with Sketch.</desc>
    <defs>
        <linearGradient x1="50%" y1="0%" x2="50%" y2="100%" id="linearGradient-1">
            <stop stop-color="#57B9D6" offset="0%"></stop>
            <stop stop-color="#5998DC" offset="100%"></stop>
        </linearGradient>
    </defs>
    <g id="Page-1" stroke="none" stroke-width="1" fill="none" fill-rule="evenodd">
        <g id="96x96">
            <rect id="Rectangle" fill="url(#linearGradient-1)" x="0" y="0" width="96" height="96" rx="13"></rect>
            <g id="logo" transform="translate(18.560000, 19.200000)" fill="#FFFFFF">
                <path d="M51.06688,21.824 L49.85088,20.928 L48.57088,21.056 L48.57088,21.824 L48.18688,21.824 L47.73888,21.504 L45.56288,20.928 L45.56288,19.52 L42.74688,19.712 L41.91488,20.224 L40.76288,20.224 L40.18688,20.16 L38.84288,20.928 L38.84288,22.336 L36.09088,24.32 L36.28288,25.152 L36.85888,25.152 L36.66688,25.984 L36.28288,26.176 L36.21888,28.288 L38.58688,31.04 L39.61088,31.04 L39.67488,30.848 L41.53088,30.848 L42.04288,30.336 L43.13088,30.336 L43.70688,30.912 L45.24288,31.104 L45.05088,33.216 L46.84288,36.288 L45.94688,38.08 L46.01088,38.912 L46.71488,39.68 L46.71488,41.664 L47.67488,42.944 L47.67488,44.608 L48.37888,44.608 C44.53888,49.792 38.07488,52.352 29.11488,52.352 C26.04288,52.352 23.29088,52.032 20.79488,51.456 C20.41088,51.392 19.96288,51.264 19.64288,51.136 L18.36288,50.752 C17.85088,50.624 17.46688,50.688 17.14688,50.816 C11.13088,54.72 2.74688,52.864 4.79488,50.752 C7.16288,48.448 8.18688,46.016 8.50688,43.648 C8.57088,43.008 8.37888,42.496 8.18688,41.92 C6.39488,38.464 5.49888,34.048 5.49888,28.8 C5.49888,25.792 5.81888,23.04 6.39488,20.608 L7.16288,20.992 L7.16288,22.976 L8.12288,24.704 L8.95488,24.832 L9.08288,24.256 L8.12288,22.784 L7.93088,21.312 L8.50688,21.312 L8.69888,22.784 L10.10688,24.832 L9.72288,25.472 L10.55488,26.816 L12.73088,27.328 L12.73088,27.008 L13.56288,27.136 L13.43488,27.776 L14.13888,27.904 L15.22688,28.224 L16.69888,29.952 L18.61888,30.08 L18.81088,31.68 L17.53088,32.576 L17.46688,33.984 L17.27488,34.816 L19.19488,37.184 L19.38688,38.016 C19.38688,38.016 20.02688,38.208 20.15488,38.208 C20.28288,38.208 21.69088,39.296 21.69088,39.296 L21.69088,43.584 L22.20288,43.776 L21.81888,45.76 L22.65088,46.912 L22.45888,48.896 L23.61088,50.944 L25.08288,52.224 L26.55488,52.288 L26.74688,51.776 L25.78688,50.432 L25.85088,49.984 L26.04288,49.408 L26.04288,48.832 L25.27488,48.768 L24.89088,48.256 L25.53088,47.68 L25.65888,47.232 L24.95488,47.04 L25.01888,46.656 L25.97888,46.464 L27.45088,45.76 L27.96288,44.864 L29.49888,42.88 L29.17888,41.344 L29.69088,40.512 L31.16288,40.576 L32.12288,39.808 L32.44288,36.8 L33.53088,35.456 L33.72288,34.624 L32.76288,34.304 L32.12288,33.216 L29.88288,33.152 L28.15488,32.512 L28.02688,31.232 L27.45088,30.208 L25.85088,30.208 L24.95488,28.736 L24.12288,28.352 L24.12288,28.8 L22.65088,28.928 L22.13888,28.16 L20.60288,27.84 L19.32288,29.312 L17.33888,28.928 L17.14688,26.688 L15.67488,26.432 L16.25088,25.344 L16.05888,24.704 L14.13888,25.984 L12.92288,25.792 L12.47488,24.832 L12.73088,23.872 L13.43488,22.656 L14.97088,21.888 L17.91488,21.888 L17.91488,22.784 L19.00288,23.296 L18.87488,21.76 L19.64288,20.992 L21.17888,19.968 L21.30688,19.264 L22.84288,17.664 L24.50688,16.768 L24.31488,16.64 L25.46688,15.616 L25.91488,15.744 L26.10688,15.936 L26.55488,15.424 L26.68288,15.36 L26.23488,15.296 L25.72288,15.104 L25.72288,14.656 L26.04288,14.528 L26.55488,14.528 L26.81088,14.656 L27.00288,15.104 L27.25888,15.04 L27.32288,15.04 L28.09088,14.912 L28.21888,14.528 L28.66688,14.656 L28.66688,15.232 L28.21888,15.488 L28.28288,15.936 L29.69088,16.384 L30.01088,16.384 L30.07488,15.744 L28.98688,15.232 L28.92288,14.912 L29.81888,14.592 L29.88288,13.76 L28.92288,13.184 L28.85888,11.712 L27.51488,12.352 L27.00288,12.352 L27.13088,11.2 L25.33888,10.752 L24.57088,11.264 L24.57088,12.992 L23.29088,13.44 L22.77888,14.592 L22.20288,14.656 L22.20288,13.312 L20.92288,13.12 L20.34688,12.672 L20.09088,11.776 L22.33088,10.496 L23.41888,10.176 L23.54688,10.944 L24.18688,10.88 L24.18688,10.56 L24.82688,10.432 L24.82688,10.304 L24.57088,10.176 L24.50688,9.792 L25.27488,9.728 L25.78688,9.216 L25.85088,9.216 L25.97888,9.024 L27.64288,8.832 L28.41088,9.472 L26.49088,10.496 L28.92288,11.072 L29.24288,10.24 L30.33088,10.24 L30.71488,9.536 L29.94688,9.344 L29.94688,8.448 L27.57888,7.424 L25.97888,7.616 L25.01888,8.128 L25.08288,9.28 L24.12288,9.088 L23.93088,8.448 L24.89088,7.616 L23.22688,7.488 L22.71488,7.68 L22.58688,8.192 L23.16288,8.32 L23.03488,8.896 L21.94688,8.96 L21.75488,9.344 L20.21888,9.408 C20.21888,9.408 20.15488,8.576 20.09088,8.576 C20.02688,8.576 21.30688,8.512 21.30688,8.512 L22.20288,7.616 L21.69088,7.36 L20.98688,8 L19.89888,7.936 L19.19488,7.104 L17.78688,7.104 L16.31488,8.192 L17.65888,8.192 L17.78688,8.576 L17.46688,8.896 L18.93888,8.896 L19.13088,9.472 L17.46688,9.408 L17.33888,9.024 L16.44288,8.832 L15.86688,8.512 L14.77888,8.512 C18.55488,6.336 23.35488,5.12 29.24288,5.12 L29.30688,5.12 C36.34688,5.12 41.78688,6.72 45.69088,9.92 C45.75488,9.984 45.75488,9.984 45.81888,9.984 L45.56288,10.496 L44.41088,10.944 L43.89888,11.456 L43.96288,12.032 L44.53888,12.16 L44.92288,13.056 L45.94688,12.608 L46.13888,13.76 L45.81888,13.76 L44.98688,13.632 L44.09088,13.824 L43.19488,15.104 L41.91488,15.296 L41.72288,16.448 L42.29888,16.576 L42.10688,17.28 L40.82688,17.024 L39.61088,17.28 L39.35488,17.92 L39.54688,19.328 L40.25088,19.648 L41.40288,19.648 L42.17088,19.584 L42.42688,19.008 L43.64288,17.408 L44.47488,17.6 L45.30688,16.896 L45.49888,17.472 L47.48288,18.816 L47.29088,19.136 L46.39488,19.072 L46.77888,19.584 L47.35488,19.712 L47.99488,19.456 L47.99488,18.688 L48.25088,18.56 L47.99488,18.368 L46.65088,17.6 L46.26688,16.64 L47.35488,16.64 L47.73888,17.024 L48.63488,17.792 L48.69888,18.752 L49.46688,19.712 L49.85088,18.304 L50.55488,17.92 L50.68288,19.072 L51.32288,19.776 L51.83488,19.776 C52.02688,20.416 52.21888,21.184 52.34688,21.888 L51.06688,21.824 Z M25.59488,16.64 L25.40288,16.896 L25.33888,17.28 L25.85088,17.216 L25.91488,16.896 L25.59488,16.64 Z M27.45088,16.256 L27.19488,16.256 L27.00288,16.64 L26.29888,16.64 L26.29888,17.024 L26.49088,17.024 L26.49088,17.216 L26.93888,17.152 L27.19488,16.96 L27.25888,16.64 L27.64288,16.576 L27.77088,16.32 L27.45088,16.256 Z M41.78688,15.04 L42.74688,14.912 L43.25888,14.336 L42.74688,14.144 L42.49088,13.824 L42.04288,13.12 L41.85088,12.096 L41.01888,12.288 L40.76288,12.672 L40.76288,13.056 L41.14688,13.312 L41.72288,13.632 L41.78688,14.08 L41.21088,14.208 L41.08288,15.04 L41.78688,15.04 Z M39.41888,14.72 L39.99488,14.72 L41.01888,13.952 L41.08288,13.44 L40.57088,13.248 L39.86688,13.44 L39.35488,14.272 L39.41888,14.72 Z" id="Shape" fill-rule="nonzero"></path>
                <path d="M9.0176,9.01888 C4.6048,13.3824 2.24,19.82528 2.24,28.15232 C2.24,33.78624 3.36832,39.792 5.44,43.84 L4.16,45.76 C1.92384,41.39008 0.32,34.02752 0.32,28.15232 C0.32,19.46624 2.79296,12.47296 7.6672,7.65376 C12.54016,2.8352 19.68128,0.32 28.75392,0.32 C37.824,0.32 45.44512,2.83328 50.81088,7.61984 C56.19072,12.4192 59.2,19.41312 59.2,28.15232 C59.2,36.8864 56.19456,44.19136 50.8352,49.31008 C45.47968,54.42496 37.856,57.28 28.75456,57.28 C23.77472,57.28 18.10048,56.73984 14.33984,55.11872 L16.96,54.08 C21.69088,55.11872 23.99296,55.36 28.75456,55.36 C37.4528,55.36 44.57152,52.63744 49.50912,47.92192 C54.44224,43.21024 57.28,36.43136 57.28,28.15232 C57.28,19.8784 54.44608,13.43616 49.5328,9.0528 C44.60544,4.65664 37.48352,2.24 28.75456,2.24 C20.02752,2.24 13.43168,4.65408 9.0176,9.01888 Z" id="Shape" fill-opacity="0.5"></path>
            </g>
        </g>
    </g>
</svg>