<svg width="93" height="90" viewBox="0 0 93 90" xmlns="http://www.w3.org/2000/svg"><g fill="#fff"><path d="M79.792 34.1l-1.9-1.4-2 .2v1.2h-.6l-.7-.5-3.4-.9v-2.2l-4.4.3-1.3.8h-1.8l-.9-.1-2.1 1.2v2.2l-4.3 3.1.3 1.3h.9l-.3 1.3-.6.3-.1 3.3 3.7 4.3h1.6l.1-.3h2.9l.8-.8h1.7l.9.9 2.4.3-.3 3.3 2.8 4.8-1.4 2.8.1 1.3 1.1 1.2v3.1l1.5 2v2.6h1.1c-6 8.1-16.1 12.1-30.1 12.1-4.8 0-9.1-.5-13-1.4-.6-.1-1.3-.3-1.8-.5l-2-.6c-.8-.2-1.4-.1-1.9.1-9.4 6.1-22.5 3.2-19.3-.1 3.7-3.6 5.3-7.4 5.8-11.1.1-1-.2-1.8-.5-2.7-2.8-5.4-4.2-12.3-4.2-20.5 0-4.7.5-9 1.4-12.8l1.2.6v3.1l1.5 2.7 1.3.2.2-.9-1.5-2.3-.3-2.3h.9l.3 2.3 2.2 3.2-.6 1 1.3 2.1 3.4.8v-.5l1.3.2-.2 1 1.1.2 1.7.5 2.3 2.7 3 .2.3 2.5-2 1.4-.1 2.2-.3 1.3 3 3.7.3 1.3s1 .3 1.2.3c.2 0 2.4 1.7 2.4 1.7v6.7l.8.3-.6 3.1 1.3 1.8-.3 3.1 1.8 3.2 2.3 2 2.3.1.3-.8-1.5-2.1.1-.7.3-.9v-.9l-1.2-.1-.6-.8 1-.9.2-.7-1.1-.3.1-.6 1.5-.3 2.3-1.1.8-1.4 2.4-3.1-.5-2.4.8-1.3 2.3.1 1.5-1.2.5-4.7 1.7-2.1.3-1.3-1.5-.5-1-1.7-3.5-.1-2.7-1-.2-2-.9-1.6h-2.5l-1.4-2.3-1.3-.6v.7l-2.3.2-.8-1.2-2.4-.5-2 2.3-3.1-.6-.3-3.5-2.3-.4.9-1.7-.3-1-3 2-1.9-.3-.7-1.5.4-1.5 1.1-1.9 2.4-1.2h4.6v1.4l1.7.8-.2-2.4 1.2-1.2 2.4-1.6.2-1.1 2.4-2.5 2.6-1.4-.3-.2 1.8-1.6.7.2.3.3.7-.8.2-.1-.7-.1-.8-.3v-.7l.5-.2h.8l.4.2.3.7.4-.1h.1l1.2-.2.2-.6.7.2v.9l-.7.4.1.7 2.2.7h.5l.1-1-1.7-.8-.1-.5 1.4-.5.1-1.3-1.5-.9-.1-2.3-2.1 1h-.8l.2-1.8-2.8-.7-1.2.8v2.7l-2 .7-.8 1.8-.9.1v-2.1l-2-.3-.9-.7-.4-1.4 3.5-2 1.7-.5.2 1.2 1-.1v-.5l1-.2v-.2l-.4-.2-.1-.6 1.2-.1.8-.8h.1l.2-.3 2.6-.3 1.2 1-3 1.6 3.8.9.5-1.3h1.7l.6-1.1-1.2-.3v-1.4l-3.7-1.6-2.5.3-1.5.8.1 1.8-1.5-.3-.3-1 1.5-1.3-2.6-.2-.8.3-.2.8.9.2-.2.9-1.7.1-.3.6-2.4.1s-.1-1.3-.2-1.3 1.9-.1 1.9-.1l1.4-1.4-.8-.4-1.1 1-1.7-.1-1.1-1.3h-2.2l-2.3 1.7h2.1l.2.6-.5.5h2.3l.3.9-2.6-.1-.2-.6-1.4-.3-.9-.5h-1.7c5.9-3.4 13.4-5.3 22.6-5.3h.1c11 0 19.5 2.5 25.6 7.5.1.1.1.1.2.1l-.4.8-1.8.7-.8.8.1.9.9.2.6 1.4 1.6-.7.3 1.8h-.5l-1.3-.2-1.4.3-1.4 2-2 .3-.3 1.8.9.2-.3 1.1-2-.4-1.9.4-.4 1 .3 2.2 1.1.5h1.8l1.2-.1.4-.9 1.9-2.5 1.3.3 1.3-1.1.3.9 3.1 2.1-.3.5-1.4-.1.6.8.9.2 1-.4v-1.2l.4-.2-.4-.3-2.1-1.2-.6-1.5h1.7l.6.6 1.4 1.2.1 1.5 1.2 1.5.6-2.2 1.1-.6.2 1.8 1 1.1h.8c.3 1 .6 2.2.8 3.3l-2-.1zm-39.8-8.1l-.3.4-.1.6.8-.1.1-.5-.5-.4zm2.9-.6h-.4l-.3.6h-1.1v.6h.3v.3l.7-.1.4-.3.1-.5.6-.1.2-.4-.5-.1zm22.4-1.9l1.5-.2.8-.9-.8-.3-.4-.5-.7-1.1-.3-1.6-1.3.3-.4.6v.6l.6.4.9.5.1.7-.9.2-.2 1.3h1.1zm-3.7-.5h.9l1.6-1.2.1-.8-.8-.3-1.1.3-.8 1.3.1.7z"/><path fill-rule="evenodd" clip-rule="evenodd" d="M14.09 14.092c-6.895 6.818-10.59 16.885-10.59 29.896 0 8.803 1.763 18.187 5 24.512l-2 3c-3.494-6.828-6-18.332-6-27.512 0-13.572 3.864-24.499 11.48-32.029 7.614-7.529 18.772-11.459 32.948-11.459 14.172 0 26.08 3.927 34.464 11.406 8.406 7.499 13.108 18.427 13.108 32.082 0 13.647-4.696 25.061-13.07 33.059-8.368 7.992-20.28 12.453-34.501 12.453-7.781 0-16.647-.844-22.523-3.377l4.094-1.623c7.392 1.623 10.989 2 18.429 2 13.591 0 24.714-4.254 32.429-11.622 7.708-7.362 12.142-17.954 12.142-30.89 0-12.928-4.428-22.994-12.105-29.843-7.699-6.869-18.827-10.645-32.466-10.645-13.636 0-23.942 3.772-30.839 10.592z" fill-opacity=".5"/></g></svg>