<?xml version="1.0" encoding="utf-8"?>
<svg xmlns="http://www.w3.org/2000/svg"
	xmlns:xlink="http://www.w3.org/1999/xlink"
	width="410px" height="546px" viewBox="0 0 410 546">
<path fillRule="evenodd" d="M 249.47 535.96C 319.95 535.96 364.95 494.67 383.89 412.62 383.89 412.62 387.96 394.97 387.96 394.97 411.26 294.02 408.26 289.37 307.16 265.93 307.16 265.93 149.91 229.49 149.91 229.49 149.91 229.49 128.47 149.31 128.47 149.31 115.75 101.76 136.55 70.31 190.41 55.84 190.41 55.84 192.47 55.29 192.47 55.29 204.95 51.94 216.34 50.27 226.64 50.27 260.82 50.27 282.99 68.67 292.76 105.2 292.76 105.2 305.69 153.55 307.81 161.51 308.08 162.51 308.2 162.59 308.2 162.59 310.5 172.51 319.42 179.85 330.14 179.85 330.24 179.85 330.34 179.85 330.44 179.85 343.05 179.69 353.27 169.45 353.27 156.97 353.27 154.44 352.83 152.01 352.05 149.75 352.05 149.75 340.79 107.66 340.79 107.66 323.43 42.75 286.74 10.05 231.35 10.05 216.52 10.05 200.34 12.39 182.85 17.09 182.85 17.09 179.68 17.94 179.68 17.94 96.83 40.18 66.09 93.21 88.09 175.5 88.09 175.5 99.76 219.13 99.76 219.13 92.23 218.01 85.62 217.39 79.77 217.39 43.94 217.39 36.57 240.4 20.55 309.81 20.55 309.81 16.48 327.46 16.48 327.46-6.82 428.41 32.6 491.34 133.47 514.72 133.47 514.72 196.73 529.38 196.73 529.38 215.65 533.77 233.24 535.96 249.47 535.96M 200.79 322.99C 202.88 322.99 205.15 323.27 207.59 323.84 207.59 323.84 208.09 323.95 208.09 323.95 221.09 326.96 226.16 335.01 223.18 347.89 223.18 347.89 204.5 431.25 204.5 431.25 202.08 441.72 196.29 446.98 187.24 446.98 185.14 446.98 182.87 446.7 180.42 446.13 180.42 446.13 179.92 446.02 179.92 446.02 166.92 443.01 161.84 434.99 164.83 422.08 164.83 422.08 183.51 338.72 183.51 338.72 185.93 328.26 191.72 322.99 200.79 322.99M 249.47 545.96C 232.54 545.96 214.04 543.66 194.47 539.12 194.47 539.12 131.22 524.46 131.22 524.46 78.33 512.21 40.89 489 19.93 455.48-1.03 421.94-5.47 378.12 6.74 325.22 6.74 325.22 10.81 307.56 10.81 307.56 25.72 242.97 33.93 207.39 79.77 207.39 81.85 207.39 84.03 207.46 86.33 207.6 86.33 207.6 78.43 178.09 78.43 178.09 66.77 134.46 69.28 97.82 85.92 69.18 102.55 40.55 133.23 20.06 177.09 8.28 177.09 8.28 180.25 7.43 180.25 7.43 198.5 2.53 215.69 0.05 231.35 0.05 261.45 0.05 286.9 9.13 306.99 27.05 326.68 44.61 341.3 70.86 350.45 105.08 350.45 105.08 361.63 146.86 361.63 146.86 362.72 150.15 363.27 153.55 363.27 156.97 363.27 174.87 348.6 189.62 330.56 189.85 330.56 189.85 330.14 189.85 330.14 189.85 315.25 189.85 302.46 180.03 298.7 165.84 298.43 165.13 298.27 164.52 298.15 164.09 298.15 164.09 283.1 107.78 283.1 107.78 274.55 75.81 256.08 60.27 226.64 60.27 217.25 60.27 206.63 61.85 195.06 64.95 195.06 64.95 193.01 65.5 193.01 65.5 168.63 72.05 151.74 82.2 142.81 95.69 134.02 108.95 132.49 125.65 138.13 146.72 138.13 146.72 158.02 221.1 158.02 221.1 158.02 221.1 309.41 256.19 309.41 256.19 361.9 268.36 389.89 275.65 402.69 296.07 415.51 316.53 409.8 344.83 397.71 397.22 397.71 397.22 393.63 414.87 393.63 414.87 383.75 457.7 366.63 490.53 342.77 512.42 318.52 534.68 287.13 545.96 249.47 545.96 249.47 545.96 249.47 545.96 249.47 545.96ZM 200.79 332.99C 198.39 332.99 195.1 332.99 193.25 340.98 193.25 340.98 174.59 424.27 174.59 424.27 173.98 426.9 173.55 430.38 174.84 432.43 176.15 434.51 179.55 435.67 182.17 436.27 182.17 436.27 182.67 436.39 182.67 436.39 184.37 436.78 185.91 436.98 187.24 436.98 187.24 436.98 187.24 436.98 187.24 436.98 189.63 436.98 192.91 436.98 194.76 428.99 194.76 428.99 213.42 345.7 213.42 345.7 214.03 343.08 214.46 339.6 213.17 337.55 211.85 335.46 208.45 334.3 205.84 333.7 205.84 333.7 205.34 333.58 205.34 333.58 203.65 333.19 202.12 332.99 200.79 332.99 200.79 332.99 200.79 332.99 200.79 332.99Z" fill="rgb(223,229,237)"/></svg>